HIERARCHY
ROOT Hips
{
	OFFSET 0.00000 0.00000 0.00000
	CHANNELS 6 Xposition Yposition Zposition Zrotation Yrotation Xrotation 
	JOINT LHipJoint
	{
		OFFSET 0 0 0
		CHANNELS 3 Zrotation Yrotation Xrotation
		JOINT LeftUpLeg
		{
			OFFSET 1.53139 -1.83434 0.76626
			CHANNELS 3 Zrotation Yrotation Xrotation
			JOINT LeftLeg
			{
				OFFSET 2.56112 -7.03663 0.00000
				CHANNELS 3 Zrotation Yrotation Xrotation
				JOINT LeftFoot
				{
					OFFSET 2.59983 -7.14299 0.00000
					CHANNELS 3 Zrotation Yrotation Xrotation
					JOINT LeftToeBase
					{
						OFFSET 0.13742 -0.37757 2.00054
						CHANNELS 3 Zrotation Yrotation Xrotation
						End Site
						{
							OFFSET 0.00000 -0.00000 1.02897
						}
					}
				}
			}
		}
	}
	JOINT RHipJoint
	{
		OFFSET 0 0 0
		CHANNELS 3 Zrotation Yrotation Xrotation
		JOINT RightUpLeg
		{
			OFFSET -1.40122 -1.83435 0.76627
			CHANNELS 3 Zrotation Yrotation Xrotation
			JOINT RightLeg
			{
				OFFSET -2.54052 -6.98003 0.00000
				CHANNELS 3 Zrotation Yrotation Xrotation
				JOINT RightFoot
				{
					OFFSET -2.63179 -7.23079 0.00000
					CHANNELS 3 Zrotation Yrotation Xrotation
					JOINT RightToeBase
					{
						OFFSET -0.24131 -0.66299 2.03908
						CHANNELS 3 Zrotation Yrotation Xrotation
						End Site
						{
							OFFSET -0.00000 -0.00000 1.07391
						}
					}
				}
			}
		}
	}
	JOINT LowerBack
	{
		OFFSET 0 0 0
		CHANNELS 3 Zrotation Yrotation Xrotation
		JOINT Spine
		{
			OFFSET 0.01174 2.10302 -0.29778
			CHANNELS 3 Zrotation Yrotation Xrotation
			JOINT Spine1
			{
				OFFSET 0.00772 2.13227 -0.01247
				CHANNELS 3 Zrotation Yrotation Xrotation
				JOINT Neck
				{
					OFFSET 0 0 0
					CHANNELS 3 Zrotation Yrotation Xrotation
					JOINT Neck1
					{
						OFFSET -0.09219 1.60848 0.31481
						CHANNELS 3 Zrotation Yrotation Xrotation
						JOINT Head
						{
							OFFSET 0.13974 1.65456 -0.31134
							CHANNELS 3 Zrotation Yrotation Xrotation
							End Site
							{
								OFFSET 0.04742 1.69515 -0.14578
							}
						}
					}
				}
				JOINT LeftShoulder
				{
					OFFSET 0 0 0
					CHANNELS 3 Zrotation Yrotation Xrotation
					JOINT LeftArm
					{
						OFFSET 3.24909 1.02882 -0.23993
						CHANNELS 3 Zrotation Yrotation Xrotation
						JOINT LeftForeArm
						{
							OFFSET 5.32955 -0.00000 -0.00000
							CHANNELS 3 Zrotation Yrotation Xrotation
							JOINT LeftHand
							{
								OFFSET 3.69232 -0.00000 -0.00000
								CHANNELS 3 Zrotation Yrotation Xrotation
								JOINT LeftFingerBase
								{
									OFFSET 0 0 0
									CHANNELS 3 Zrotation Yrotation Xrotation
									JOINT LeftHandIndex1
									{
										OFFSET 0.53660 -0.00000 -0.00000
										CHANNELS 3 Zrotation Yrotation Xrotation
										End Site
										{
											OFFSET 0.43262 -0.00000 -0.00000
										}
									}
								}
								JOINT LThumb
								{
									OFFSET 0 0 0
									CHANNELS 3 Zrotation Yrotation Xrotation
									End Site
									{
										OFFSET 0.43922 -0.00000 0.43922
									}
								}
							}
						}
					}
				}
				JOINT RightShoulder
				{
					OFFSET 0 0 0
					CHANNELS 3 Zrotation Yrotation Xrotation
					JOINT RightArm
					{
						OFFSET -3.21387 0.93002 -0.34594
						CHANNELS 3 Zrotation Yrotation Xrotation
						JOINT RightForeArm
						{
							OFFSET -5.23431 -0.00000 0.00000
							CHANNELS 3 Zrotation Yrotation Xrotation
							JOINT RightHand
							{
								OFFSET -3.55301 -0.00000 -0.00000
								CHANNELS 3 Zrotation Yrotation Xrotation
								JOINT RightFingerBase
								{
									OFFSET 0 0 0
									CHANNELS 3 Zrotation Yrotation Xrotation
									JOINT RightHandIndex1
									{
										OFFSET -0.77252 -0.00000 -0.00000
										CHANNELS 3 Zrotation Yrotation Xrotation
										End Site
										{
											OFFSET -0.62283 -0.00000 -0.00000
										}
									}
								}
								JOINT RThumb
								{
									OFFSET 0 0 0
									CHANNELS 3 Zrotation Yrotation Xrotation
									End Site
									{
										OFFSET -0.63234 -0.00000 0.63234
									}
								}
							}
						}
					}
				}
			}
		}
	}
}
MOTION
Frames: 10
Frame Time: .0083333
-12.4552 17.8033 -16.0801 0 0 0 0 0 0 -21 0 0 0 0 0 0 0 0 0 0 0 0 0 0 21 0 0 0 0 0 0 0 0 0 0 0 0 0 0 0 0 0 0 0 0 0 0 -16 0 0 21 0 0 11 0 0 0 -8 0 0 0 0 0 0 0 0 0 0 0 0 0 0 0 0 0 0 0 0 8 0 0 0 0 0 0 0 0 0 0 0 0 0 0 0 0 0
-12.4552 17.8033 -16.0801 5.9383 -1.3608 -1.2025 0.0000 0.0000 0.0000 -31.3891 -0.9590 -1.8260 0.6167 5.0257 13.9819 -0.2326 -10.6060 -2.8700 0.0520 1.4719 4.0482 0.0000 0.0000 0.0000 11.5909 1.5324 -23.2507 -12.2685 -18.5018 66.8372 -0.0834 -2.7587 -7.1892 -0.2955 -3.4957 9.6619 -4.9296 0.8426 11.9614 -0.7219 0.4441 1.8063 1.9529 0.2973 -4.8440 -12.0025 -5.1344 -19.7290 8.4200 -5.9334 27.3747 4.3074 -2.7714 13.1018 -0.0000 -0.0000 0.0000 -86.1992 -2.1753 25.2507 18.3979 -28.6637 -4.7386 -0.0000 -0.0000 6.4745 22.5511 25.9608 10.3028 -7.1250 0.0000 -0.0000 -8.1595 57.5915 -2.5268 -0.0000 -0.0000 0.0000 89.5047 -7.2242 15.8894 -17.0431 26.9146 -4.1068 0.0000 0.0000 2.4612 -18.7566 10.9040 -3.6755 7.1250 -0.0000 -0.0000 5.8670 -18.5144 3.7198
-12.4633 17.7748 -15.9515 6.0361 -1.2783 -1.2640 0.0000 0.0000 0.0000 -31.5100 -0.9754 -1.7089 0.6959 5.3325 14.8593 -0.2307 -10.9526 -3.3925 0.0946 1.9839 5.4612 0.0000 0.0000 0.0000 11.4369 1.8683 -24.0793 -11.9765 -18.3807 65.9144 -0.1201 -2.4620 -7.9371 -0.2593 -3.2764 9.0493 -5.1324 0.7799 11.8929 -0.6764 0.3438 1.8650 2.1315 0.2483 -4.7385 -12.1228 -5.1726 -19.9279 8.4886 -5.9501 27.4706 4.3548 -2.7797 13.1927 -0.0000 0.0000 0.0000 -86.1946 -2.7097 25.6555 18.4700 -28.7547 -4.7732 -0.0000 -0.0000 5.9164 22.7973 25.4313 10.2312 -7.1250 0.0000 -0.0000 -7.6558 57.1004 -2.2787 -0.0000 0.0000 0.0000 89.3463 -7.3524 15.8884 -17.0738 26.9549 -4.1207 0.0000 0.0000 2.5765 -18.8101 10.9904 -3.7155 7.1250 -0.0000 -0.0000 5.8302 -18.4201 3.7085
-12.4740 17.7553 -15.8218 6.0929 -1.0943 -1.3518 0.0000 0.0000 0.0000 -31.5694 -0.8114 -1.4906 0.7599 5.5672 15.5337 -0.2111 -11.3632 -4.3374 0.0438 1.3513 3.7160 0.0000 0.0000 0.0000 11.3588 2.1305 -24.7607 -11.6283 -18.2290 64.8056 -0.1432 -2.1298 -8.2648 -0.0936 -1.9734 5.4322 -5.2670 0.6918 11.9305 -0.6679 0.2092 1.8942 2.2376 0.1833 -4.7188 -12.0404 -5.1851 -19.9190 8.3539 -5.9450 27.2957 4.2809 -2.7843 13.1099 -0.0000 -0.0000 0.0000 -86.0789 -3.1993 26.1387 18.5745 -28.8865 -4.8236 -0.0000 -0.0000 5.4303 23.1237 25.1136 10.2725 -7.1250 0.0000 -0.0000 -7.1682 56.8427 -2.0878 -0.0000 -0.0000 0.0000 89.2786 -7.4517 15.7841 -17.0429 26.9143 -4.1067 0.0000 0.0000 2.7413 -18.6893 11.4254 -3.8336 7.1250 -0.0000 -0.0000 5.9202 -17.9745 3.8248
-12.4842 17.7350 -15.6894 6.1905 -0.9535 -1.4275 0.0000 0.0000 0.0000 -31.6957 -0.7631 -1.1623 0.8139 5.7571 16.0812 -0.1320 -11.1958 -5.6939 0.0001 0.0765 0.2102 0.0000 0.0000 0.0000 11.2192 2.3811 -25.4238 -11.2654 -18.0625 63.6405 -0.1833 -1.8602 -8.9932 -0.0904 -1.9394 5.3383 -5.4018 0.6166 11.9961 -0.6940 0.0840 1.8206 2.3058 0.1276 -4.8231 -12.0023 -5.1421 -19.6320 8.3151 -5.9052 27.0374 4.2589 -2.7711 12.9361 0.0000 -0.0000 0.0000 -85.9135 -3.4420 26.6608 18.7510 -29.1081 -4.9091 -0.0000 -0.0000 4.9694 23.1266 25.1438 10.2852 -7.1250 0.0000 -0.0000 -7.1779 56.8747 -2.0962 0.0000 -0.0000 0.0000 89.3165 -7.6445 15.5637 -16.9426 26.7821 -4.0615 0.0000 0.0000 2.9424 -18.8667 11.8017 -3.9980 7.1250 -0.0000 -0.0000 5.8014 -17.5672 3.7995
-12.4919 17.7110 -15.5604 6.3365 -0.8176 -1.4314 0.0000 0.0000 0.0000 -31.8851 -0.9178 -0.8618 0.8651 5.9309 16.5840 -0.0619 -10.9190 -6.6699 0.0093 -0.6235 -1.7135 0.0000 0.0000 0.0000 11.0118 2.6340 -26.1910 -10.8666 -17.8692 62.3475 -0.2234 -1.5650 -9.6432 -0.0819 -1.8460 5.0802 -5.5736 0.5415 11.9627 -0.6916 -0.0378 1.7485 2.4243 0.0732 -4.8706 -12.1179 -5.0894 -19.5589 8.4544 -5.8488 27.1341 4.3485 -2.7435 12.9623 0.0000 0.0000 0.0000 -85.9014 -3.7040 27.0320 18.9170 -29.3154 -4.9902 -0.0000 -0.0000 4.6416 22.8714 24.9741 10.0985 -7.1250 0.0000 -0.0000 -7.3797 56.6441 -2.1144 0.0000 0.0000 0.0000 89.2216 -7.8443 15.4509 -16.8657 26.6804 -4.0269 0.0000 0.0000 2.9698 -18.9898 11.8952 -4.0573 7.1250 -0.0000 -0.0000 5.7170 -17.4594 3.7572
-12.5038 17.6905 -15.4336 6.4519 -0.7075 -1.3750 0.0000 0.0000 0.0000 -31.9855 -0.8601 -0.6199 0.8936 6.0250 16.8569 -0.0342 -11.1155 -7.2711 0.0086 -0.5975 -1.6419 0.0000 0.0000 0.0000 10.8774 2.9768 -26.9803 -10.4282 -17.6437 60.9103 -0.2470 -1.4904 -10.0533 -0.0624 -1.6115 4.4331 -5.7903 0.4346 11.8472 -0.6675 -0.1987 1.7236 2.5969 -0.0029 -4.8185 -12.1388 -4.9955 -19.7155 8.4952 -5.7087 27.3039 4.3986 -2.6780 13.0480 0.0000 -0.0000 0.0000 -85.8770 -4.1196 27.3166 19.0000 -29.4187 -5.0309 -0.0000 -0.0000 4.0702 23.2395 24.4868 10.0922 -7.1250 0.0000 -0.0000 -6.7864 56.2173 -1.8731 0.0000 -0.0000 0.0000 89.1201 -7.8756 15.3259 -16.7749 26.5601 -3.9862 0.0000 0.0000 3.1381 -18.6709 11.8300 -3.9629 7.1250 -0.0000 -0.0000 5.9386 -17.5535 3.8921
-12.5167 17.6616 -15.3056 6.4513 -0.6766 -1.3657 0.0000 0.0000 0.0000 -31.9635 -0.7358 -0.2100 0.9037 6.0582 16.9533 -0.0040 -11.2450 -7.8267 0.0159 -0.8154 -2.2410 0.0000 0.0000 0.0000 10.8961 3.3652 -27.6152 -9.9599 -17.3873 59.3543 -0.2849 -1.2501 -10.6176 -0.0408 -1.3044 3.5868 -5.8907 0.3847 11.8145 -0.6311 -0.2738 1.7134 2.7034 -0.0381 -4.8038 -12.2226 -4.9581 -19.6778 8.6131 -5.6601 27.1724 4.4646 -2.6494 12.9867 -0.0000 0.0000 0.0000 -85.7941 -4.5470 27.6196 19.1116 -29.5571 -5.0858 -0.0000 -0.0000 3.7167 23.0732 24.7904 10.1271 -7.1250 0.0000 -0.0000 -7.0872 56.4970 -2.0048 -0.0000 0.0000 0.0000 89.1223 -7.8754 15.0624 -16.6997 26.4602 -3.9526 0.0000 0.0000 3.4019 -18.5529 11.7164 -3.8989 7.1250 -0.0000 -0.0000 6.0195 -17.6813 3.9287
-12.5283 17.6491 -15.1765 6.4475 -0.7008 -1.3743 0.0000 0.0000 0.0000 -31.9349 -0.5771 0.3026 0.8976 6.0383 16.8956 0.0182 -11.2623 -8.1663 0.0087 -0.6007 -1.6508 0.0000 0.0000 0.0000 10.9455 3.7914 -28.0455 -9.4443 -17.0853 57.6142 -0.3158 -1.0263 -11.0384 -0.0416 -1.3167 3.6207 -5.9499 0.3820 11.8183 -0.6195 -0.2834 1.7424 2.7504 -0.0431 -4.7740 -12.4597 -4.9962 -19.5720 8.9385 -5.7348 26.9125 4.6140 -2.6641 12.8883 0.0000 -0.0000 0.0000 -85.6662 -5.0997 27.8383 19.2859 -29.7723 -5.1720 -0.0000 -0.0000 4.0988 21.8172 26.0737 9.9791 -7.1250 0.0000 -0.0000 -9.0044 57.5455 -2.7811 0.0000 -0.0000 0.0000 89.1593 -7.8821 14.9366 -16.6633 26.4118 -3.9364 0.0000 0.0000 3.4583 -18.8560 11.8376 -4.0075 7.1250 -0.0000 -0.0000 5.8095 -17.5305 3.8095
-12.5413 17.6449 -15.0417 6.4406 -0.6965 -1.3518 0.0000 0.0000 0.0000 -31.8791 -0.3097 0.8623 0.8663 5.9348 16.5953 0.0227 -11.3303 -8.2774 0.0012 -0.2213 -0.6080 0.0000 0.0000 0.0000 11.0002 4.1624 -28.3860 -8.8953 -16.7398 55.7272 -0.2873 -1.4467 -10.7578 -0.1226 -2.2571 6.2168 -6.0563 0.3383 11.7311 -0.5829 -0.3462 1.7473 2.8581 -0.0739 -4.7138 -12.5068 -4.9938 -19.6442 8.9694 -5.7146 26.8932 4.6371 -2.6545 12.8955 -0.0000 0.0000 0.0000 -85.6424 -5.5781 27.9010 19.4377 -29.9589 -5.2476 -0.0000 -0.0000 4.5902 20.9311 26.6176 9.7241 -7.1250 0.0000 -0.0000 -10.2261 57.9026 -3.2516 -0.0000 0.0000 0.0000 89.1511 -7.9480 14.7499 -16.5981 26.3250 -3.9075 0.0000 0.0000 3.6608 -18.7247 12.0520 -4.0484 7.1250 -0.0000 -0.0000 5.9046 -17.3172 3.9002
